<svg xmlns="http://www.w3.org/2000/svg" viewBox="0 0 178.05 175.18"><defs><style>.cls-1{fill:#fff;}.cls-2{fill:#32b451;}</style></defs><title>logo-light</title><g id="Layer_2" data-name="Layer 2"><g id="Layer_1-2" data-name="Layer 1"><path class="cls-1" d="M175.18,87.59a87.61,87.61,0,1,1-35-70,13,13,0,0,0,17.65,17.73A87.1,87.1,0,0,1,175.18,87.59Z"/><polygon class="cls-2" points="96.48 128.59 79.18 128.59 79.18 96.6 45.76 96.6 45.76 79.78 79.18 79.78 79.18 46.6 96.48 46.6 96.48 79.78 129.42 79.78 129.42 96.6 96.48 96.6 96.48 128.59"/><circle class="cls-2" cx="126.79" cy="46.91" r="11.97"/><circle class="cls-1" cx="170.77" cy="8.45" r="7.27" transform="translate(96.42 162.42) rotate(-67.06)"/><circle class="cls-1" cx="151.56" cy="23.93" r="9.41" transform="translate(70.44 154.17) rotate(-67.06)"/></g></g></svg>