<?xml version="1.0" encoding="utf-8"?>
<!-- Generator: Adobe Illustrator 19.0.0, SVG Export Plug-In . SVG Version: 6.00 Build 0)  -->
<svg version="1.1" id="Layer_1" xmlns="http://www.w3.org/2000/svg" xmlns:xlink="http://www.w3.org/1999/xlink" x="0px" y="0px"
	 viewBox="0 0 656.8 228" style="enable-background:new 0 0 656.8 228;" xml:space="preserve">
<g id="XMLID_30_">
	<path fill="#fff" id="XMLID_31_" d="M18.9,125.3c0-7.8,1.3-15,4-21.8c2.6-6.7,6.3-12.6,11-17.6c4.7-5,10.3-8.9,16.8-11.8
		c6.5-2.8,13.4-4.3,20.9-4.3c9.4,0,17.8,2.2,25.2,6.6c7.4,4.4,12.8,10.4,16.4,18l-6.9,2.5c-3.5-6.4-8.3-11.4-14.6-15
		c-6.2-3.6-13.2-5.4-20.8-5.4c-6.2,0-12.1,1.2-17.6,3.7c-5.5,2.5-10.3,5.9-14.4,10.3c-4.1,4.4-7.3,9.5-9.6,15.5
		c-2.3,6-3.4,12.4-3.4,19.1c0,6.8,1.2,13.2,3.6,19.3c2.4,6,5.7,11.3,9.8,15.9c4.1,4.6,8.9,8.2,14.4,10.8c5.5,2.6,11.3,4,17.4,4
		c4,0,8-0.6,12-1.8c4-1.2,7.6-2.7,10.9-4.7c3.3-1.9,6.2-4.2,8.6-6.8c2.4-2.6,4.1-5.3,4.9-8.2l7.1,2.1c-1.2,3.7-3.3,7.2-6.1,10.4
		c-2.8,3.2-6.2,5.9-10,8.2c-3.8,2.3-8,4.1-12.6,5.4c-4.6,1.3-9.3,2-14.2,2c-7.4,0-14.2-1.5-20.6-4.5c-6.4-3-12-7-16.8-12.2
		c-4.8-5.1-8.6-11.1-11.3-18C20.3,140.4,18.9,133.1,18.9,125.3z"/>
	<path fill="#fff" id="XMLID_33_" d="M172.7,181.9c-11.4,0-20-4.1-25.8-12.3c-5.8-8.2-8.7-20.3-8.7-36.4V71.6h7.1v60.8
		c0,28.6,9.6,42.9,28.9,42.9c4.9,0,9.6-0.9,14.4-2.6c4.7-1.7,9.1-4.1,13-7.2c4-3.1,7.4-6.7,10.4-11c3-4.3,5.3-9,7-14.2V71.6h7.1v97
		c0,3.1,1.2,4.6,3.7,4.6v6.7c-0.6,0.1-1.2,0.2-2.1,0.2c-2.2,0-4.2-0.9-5.8-2.6c-1.7-1.7-2.5-3.9-2.5-6.3v-17.9
		c-4.7,8.9-11.2,15.9-19.6,21C191.5,179.4,182.4,181.9,172.7,181.9z"/>
	<path fill="#fff" id="XMLID_35_" d="M308.6,78.3c-10,0.4-18.7,3.6-26,9.5c-7.4,5.9-12.5,13.9-15.4,24v68.1h-7.1V71.6h6.9v27.5
		c3.7-7.6,8.7-13.9,15-18.7c6.2-4.9,12.9-7.7,20-8.5c1.4-0.1,2.7-0.2,3.9-0.2c1.2,0,2.1,0,2.8,0V78.3z"/>
	<path fill="#fff" id="XMLID_37_" d="M368.6,181.9c-7.4,0-14.2-1.5-20.6-4.5c-6.4-3-12-7.1-16.8-12.3s-8.5-11.2-11.2-18.1
		c-2.7-6.9-4.1-14.2-4.1-22c0-7.6,1.3-14.8,4-21.4c2.6-6.7,6.3-12.5,11-17.5c4.7-5,10.2-8.9,16.4-11.9s13-4.4,20.4-4.4
		c7.5,0,14.4,1.5,20.8,4.4c6.4,2.9,11.9,6.9,16.7,12c4.7,5.1,8.4,11,11.1,17.8c2.7,6.8,4.1,14,4.1,21.6c0,0.3,0,0.8,0,1.7
		c0,0.8-0.1,1.3-0.2,1.5h-97c0.6,6.7,2.1,12.9,4.7,18.6c2.6,5.8,5.9,10.7,10,14.9c4.1,4.2,8.8,7.5,14.2,9.9c5.3,2.4,11,3.6,17,3.6
		c3.9,0,7.7-0.5,11.6-1.6c3.8-1,7.4-2.5,10.7-4.5c3.3-1.9,6.2-4.3,8.7-7c2.5-2.7,4.5-5.7,6-8.8l6.5,1.7c-1.5,3.7-3.7,7.3-6.7,10.5
		c-2.9,3.3-6.3,6-10.3,8.3c-4,2.3-8.2,4.1-12.8,5.4C378.2,181.3,373.4,181.9,368.6,181.9z M413.3,122.8c-0.4-6.8-1.9-13-4.4-18.7
		c-2.5-5.7-5.8-10.6-9.9-14.8c-4.1-4.2-8.8-7.4-14-9.7c-5.3-2.3-11-3.4-17.1-3.4c-6.1,0-11.8,1.2-17.1,3.5
		c-5.3,2.4-9.9,5.6-13.8,9.8c-4,4.2-7.1,9.1-9.6,14.8c-2.4,5.7-3.9,11.9-4.3,18.5H413.3z"/>
	<path  fill="#fff" id="XMLID_40_" d="M445.4,27.9h6.9v133.4c0,4,1.2,7.2,3.7,9.6c2.5,2.4,5.8,3.5,9.8,3.5c1.5,0,3.4-0.2,5.5-0.5
		c2.1-0.3,4.1-0.9,5.9-1.6l1.7,5.8c-2.1,0.7-4.7,1.3-7.8,1.9s-5.8,0.8-8,0.8c-5.3,0-9.5-1.6-12.8-4.9c-3.3-3.3-4.9-7.7-4.9-13.2
		V27.9z"/>
	<path fill="#fff" id="XMLID_42_" d="M501.8,219.4c4.7,0,8-0.5,9.8-1.5c0.7-0.4,1.4-1.1,2.2-2.2c0.8-1,1.8-2.9,3-5.6s2.9-6.5,5-11.2
		s4.8-11.1,8.1-19L480.6,71.6h7.5l45.6,100.7l42.9-100.7h7.1l-61.8,144.9c-1.9,4.7-5.8,7.7-11.4,9c-1.4,0.3-2.8,0.4-4.2,0.5
		c-1.4,0.1-2.8,0.1-4.4,0.1V219.4z"/>
</g>
<circle fill="#fff" id="XMLID_2_" cx="618.5" cy="91.3" r="15"/>
<circle fill="#fff" id="XMLID_4_" cx="618.5" cy="143.6" r="15"/>
</svg>
