<svg xmlns="http://www.w3.org/2000/svg" viewBox="0 0 625.75 175.18"><defs><style>.cls-1{fill:#fff;}.cls-2{fill:#32b451;}</style></defs><title>logo-text-light</title><g id="Layer_2" data-name="Layer 2"><g id="Layer_1-2" data-name="Layer 1"><path class="cls-1" d="M261.11,62.63a29,29,0,0,1,14.52,4,34.56,34.56,0,0,1,11.72,10.88l3.48,5.16a2.53,2.53,0,0,0,4.64-1.42V64.68l-1.19-1.29c-8.91-9.51-19.84-14.33-32.51-14.33s-23.37,4.35-32,13S216.66,81,216.66,92.9,221,115.22,229.52,124s18.94,13.28,30.91,13.28H262a42.09,42.09,0,0,0,32.35-14.41l1.16-1.26V102.38a1.81,1.81,0,0,0-3.31-1l-4.83,7.33a34.35,34.35,0,0,1-11.67,11,29.38,29.38,0,0,1-14.54,4c-8.17,0-15.07-3-21.16-9a30.09,30.09,0,0,1,0-43C246,65.58,253,62.63,261.11,62.63Z"/><path class="cls-1" d="M369.6,50.9V99.39c0,6.54-2.45,12.1-7.48,17s-10.74,7.32-17.33,7.32a21.8,21.8,0,0,1-16.54-7.19,23.82,23.82,0,0,1-6.93-17.12V50.9H307.05V99.39a37,37,0,0,0,10.86,26.82,36.34,36.34,0,0,0,26.87,11.08c10.12,0,18.45-2.84,24.82-8.44v6.59h14.26V50.9Z"/><path class="cls-1" d="M449.91,57.15a29.43,29.43,0,0,0-17.78-6.26,32.5,32.5,0,0,0-16.52,4.3c-1,.55-1.88,1.14-2.75,1.77V52.75H398.6v84.54h14.26V82.41a16.91,16.91,0,0,1,5.49-12.48A17.3,17.3,0,0,1,431,64.49c4.76,0,9.06,2,13.17,6.1l7.58,7.58V58.49Z"/><path class="cls-1" d="M519.51,119.68a31.21,31.21,0,0,1-15.85,4c-4.45,0-9.21-1.62-14.17-4.82l52.09-51.42-2.85-3.15C529.59,54.18,518.47,49,505.67,49s-23.55,4.37-32.22,13-13.08,19-13.08,30.81,4.42,22.28,13.13,31.11,19.16,13.34,31,13.34H506c12.57,0,23.4-4.9,32.2-14.57l1.16-1.27V96.63l-8.12,12A35.58,35.58,0,0,1,519.51,119.68Zm1.79-52-41.75,41.47a29.62,29.62,0,0,1-4.91-16.85c0-7.81,3-14.57,9-20.65s12.81-9,20.57-9A30,30,0,0,1,521.3,67.71Z"/><polygon class="cls-1" points="592.37 86.93 614.77 52.75 598.78 52.75 584.36 74.66 569.94 52.75 553.07 52.75 576.02 87.46 543.35 137.29 559.35 137.29 584.03 99.72 608.87 137.29 625.75 137.29 592.37 86.93"/><path class="cls-1" d="M175.18,87.59a87.61,87.61,0,1,1-35-70,13,13,0,0,0,17.65,17.73A87.1,87.1,0,0,1,175.18,87.59Z"/><polygon class="cls-2" points="96.48 128.59 79.18 128.59 79.18 96.6 45.76 96.6 45.76 79.78 79.18 79.78 79.18 46.6 96.48 46.6 96.48 79.78 129.42 79.78 129.42 96.6 96.48 96.6 96.48 128.59"/><circle class="cls-2" cx="126.79" cy="46.91" r="11.97"/><circle class="cls-1" cx="170.77" cy="8.45" r="7.27" transform="translate(96.42 162.42) rotate(-67.06)"/><circle class="cls-1" cx="151.56" cy="23.93" r="9.41" transform="translate(70.44 154.17) rotate(-67.06)"/></g></g></svg>