<svg xmlns="http://www.w3.org/2000/svg" viewBox="0 0 607.27 175.18"><defs><style>.cls-1{fill:#fff;}.cls-2{fill:#32b451;}</style></defs><title>logo-text-white</title><g id="Layer_2" data-name="Layer 2"><g id="Layer_1-2" data-name="Layer 1"><path class="cls-1" d="M242.63,57a29,29,0,0,1,14.52,4,34.56,34.56,0,0,1,11.72,10.88l3.48,5.16A2.53,2.53,0,0,0,277,75.65V59.1l-1.19-1.29C266.9,48.3,256,43.48,243.29,43.48s-23.37,4.35-32,13-13.07,19-13.07,30.88,4.32,22.32,12.86,31.12,18.94,13.28,30.91,13.28h1.53a42.09,42.09,0,0,0,32.35-14.41L277,116V96.8a1.81,1.81,0,0,0-3.31-1l-4.83,7.33a34.35,34.35,0,0,1-11.67,11,29.38,29.38,0,0,1-14.54,4c-8.17,0-15.07-3-21.16-9a30.09,30.09,0,0,1,0-43C227.56,60,234.49,57,242.63,57Z"/><path class="cls-1" d="M351.12,45.32V93.81c0,6.54-2.45,12.1-7.48,17s-10.74,7.32-17.33,7.32a21.8,21.8,0,0,1-16.54-7.19,23.82,23.82,0,0,1-6.93-17.12V45.32H288.57V93.81a37,37,0,0,0,10.86,26.82,36.34,36.34,0,0,0,26.87,11.08c10.12,0,18.45-2.84,24.82-8.44v6.59h14.26V45.32Z"/><path class="cls-1" d="M431.43,51.58a29.43,29.43,0,0,0-17.78-6.26,32.5,32.5,0,0,0-16.52,4.3c-1,.55-1.88,1.14-2.75,1.77V47.17H380.12v84.54h14.26V76.83a16.91,16.91,0,0,1,5.49-12.48,17.3,17.3,0,0,1,12.6-5.44c4.76,0,9.06,2,13.17,6.1l7.58,7.58V52.91Z"/><path class="cls-1" d="M501,114.1a31.21,31.21,0,0,1-15.85,4c-4.45,0-9.21-1.62-14.17-4.82l52.09-51.42-2.85-3.15C511.11,48.6,500,43.47,487.19,43.47s-23.55,4.37-32.22,13-13.08,19-13.08,30.81,4.42,22.28,13.13,31.11,19.16,13.34,31,13.34h1.51c12.57,0,23.4-4.9,32.2-14.57l1.16-1.27V91.05l-8.12,12A35.58,35.58,0,0,1,501,114.1Zm1.79-52-41.75,41.47a29.62,29.62,0,0,1-4.91-16.85c0-7.81,3-14.57,9-20.65s12.81-9,20.57-9A30,30,0,0,1,502.82,62.13Z"/><polygon class="cls-1" points="573.89 81.35 596.29 47.17 580.3 47.17 565.88 69.08 551.46 47.17 534.59 47.17 557.54 81.88 524.87 131.71 540.87 131.71 565.55 94.14 590.39 131.71 607.27 131.71 573.89 81.35"/><path class="cls-2" d="M175.18,87.59a87.61,87.61,0,1,1-35-70,13,13,0,0,0,17.65,17.73A87.1,87.1,0,0,1,175.18,87.59Z"/><polygon class="cls-1" points="96.48 128.59 79.18 128.59 79.18 96.6 45.76 96.6 45.76 79.78 79.18 79.78 79.18 46.6 96.48 46.6 96.48 79.78 129.42 79.78 129.42 96.6 96.48 96.6 96.48 128.59"/><circle class="cls-1" cx="126.79" cy="46.91" r="11.97"/><circle class="cls-2" cx="170.77" cy="8.45" r="7.27" transform="translate(96.42 162.42) rotate(-67.06)"/><circle class="cls-2" cx="151.56" cy="23.93" r="9.41" transform="translate(70.44 154.17) rotate(-67.06)"/></g></g></svg>