<svg xmlns="http://www.w3.org/2000/svg" viewBox="0 0 625.19 175.18"><defs><style>.cls-1{fill:#231f20;}.cls-2{fill:#32b451;}.cls-3{fill:#fff;}</style></defs><title>logo-text-dark</title><g id="Layer_2" data-name="Layer 2"><g id="Layer_1-2" data-name="Layer 1"><path class="cls-1" d="M260.54,59a29,29,0,0,1,14.52,4A34.56,34.56,0,0,1,286.79,73.9l3.48,5.16a2.53,2.53,0,0,0,4.64-1.42V61.1l-1.19-1.29c-8.91-9.51-19.84-14.33-32.51-14.33s-23.37,4.35-32,13-13.07,19-13.07,30.88,4.32,22.32,12.86,31.12,18.94,13.28,30.91,13.28h1.53a42.09,42.09,0,0,0,32.35-14.41L294.9,118V98.79a1.81,1.81,0,0,0-3.31-1l-4.83,7.33a34.35,34.35,0,0,1-11.67,11,29.38,29.38,0,0,1-14.54,4c-8.17,0-15.07-3-21.16-9a30.09,30.09,0,0,1,0-43C245.47,62,252.4,59,260.54,59Z"/><path class="cls-1" d="M369,47.31V95.8c0,6.54-2.45,12.1-7.48,17s-10.74,7.32-17.33,7.32a21.8,21.8,0,0,1-16.54-7.19,23.82,23.82,0,0,1-6.93-17.12V47.31H306.48V95.8a37,37,0,0,0,10.86,26.82,36.34,36.34,0,0,0,26.87,11.08c10.12,0,18.45-2.84,24.82-8.44v6.59h14.26V47.31Z"/><path class="cls-1" d="M449.35,55.28a29.85,29.85,0,0,0-17.78-6.12A33.06,33.06,0,0,0,415,53.36c-1,.54-1.88,1.12-2.75,1.73V51H398V133.7H412.3V80a16.39,16.39,0,0,1,5.49-12.21,17.48,17.48,0,0,1,12.6-5.33c4.76,0,9.06,2,13.17,6l7.58,7.42V56.59Z"/><path class="cls-1" d="M518.94,116.09a31.21,31.21,0,0,1-15.85,4c-4.45,0-9.21-1.62-14.17-4.82L541,63.86l-2.85-3.15C529,50.59,517.9,45.46,505.1,45.46s-23.55,4.37-32.22,13-13.08,19-13.08,30.81,4.42,22.28,13.13,31.11,19.16,13.34,31,13.34h1.51c12.57,0,23.4-4.9,32.2-14.57l1.16-1.27V93l-8.12,12A35.58,35.58,0,0,1,518.94,116.09Zm1.79-52L479,105.59a29.62,29.62,0,0,1-4.91-16.85c0-7.81,3-14.57,9-20.65s12.81-9,20.57-9A30,30,0,0,1,520.73,64.12Z"/><polygon class="cls-1" points="591.8 83.34 614.2 49.16 598.21 49.16 583.79 71.08 569.37 49.16 552.5 49.16 575.45 83.87 542.78 133.7 558.78 133.7 583.47 96.13 608.31 133.7 625.19 133.7 591.8 83.34"/><path class="cls-2" d="M175.18,87.59a87.61,87.61,0,1,1-35-70,13,13,0,0,0,17.65,17.73A87.1,87.1,0,0,1,175.18,87.59Z"/><polygon class="cls-3" points="96.48 128.59 79.18 128.59 79.18 96.6 45.76 96.6 45.76 79.78 79.18 79.78 79.18 46.6 96.48 46.6 96.48 79.78 129.42 79.78 129.42 96.6 96.48 96.6 96.48 128.59"/><circle class="cls-3" cx="126.79" cy="46.91" r="11.97"/><circle class="cls-2" cx="170.77" cy="8.45" r="7.27" transform="translate(96.42 162.42) rotate(-67.06)"/><circle class="cls-2" cx="151.56" cy="23.93" r="9.41" transform="translate(70.44 154.17) rotate(-67.06)"/></g></g></svg>