<?xml version="1.0" standalone="no"?>
<!DOCTYPE svg PUBLIC "-//W3C//DTD SVG 20010904//EN"
 "http://www.w3.org/TR/2001/REC-SVG-20010904/DTD/svg10.dtd">
<svg version="1.0" xmlns="http://www.w3.org/2000/svg"
 width="90.000000pt" height="90.000000pt" viewBox="0 0 90.000000 90.000000"
 preserveAspectRatio="xMidYMid meet">
<metadata>
Created by potrace 1.11, written by Peter Selinger 2001-2013
</metadata>
<g transform="translate(0.000000,90.000000) scale(0.100000,-0.100000)"
fill="#000000" stroke="none">
<path d="M331 864 c-123 -33 -227 -121 -283 -239 -23 -51 -31 -84 -35 -150 -9
-138 28 -239 124 -336 94 -96 199 -135 338 -126 272 16 459 277 389 542 -8 33
-26 79 -40 102 -20 35 -29 42 -54 41 -41 -1 -70 27 -70 68 0 28 -6 37 -42 58
-91 53 -220 69 -327 40z m351 -171 c26 -23 24 -78 -4 -97 -12 -9 -30 -16 -39
-16 -28 0 -61 34 -61 63 0 57 63 87 104 50z m-192 -123 l0 -80 86 0 85 0 -3
-47 -3 -48 -82 -3 -83 -3 0 -79 0 -80 -45 0 -45 0 0 80 0 80 -85 0 -85 0 0 50
0 50 85 0 85 0 0 80 0 80 45 0 45 0 0 -80z"/>
<path d="M834 856 c-10 -26 4 -48 28 -44 17 2 23 10 23 28 0 18 -6 26 -23 28
-13 2 -25 -3 -28 -12z"/>
<path d="M738 799 c-36 -21 -16 -79 27 -79 43 0 59 44 27 73 -21 19 -30 20
-54 6z"/>
</g>
</svg>
